<svg height="512" viewBox="0 0 74 74" width="512" xmlns="http://www.w3.org/2000/svg"><g id="color_line" data-name="color line"><path d="m11.019 56.168v-31.552a13.8 13.8 0 0 1 11.853-13.76 106.183 106.183 0 0 1 28.3-.022 13.778 13.778 0 0 1 11.8 13.752v31.582z" fill="#fe7058"/><path d="m51.177 10.834a106.182 106.182 0 0 0 -28.3.022 13.517 13.517 0 0 0 -8.354 4.486 13.405 13.405 0 0 1 5.166-1.831 106.183 106.183 0 0 1 28.3-.022 13.778 13.778 0 0 1 11.8 13.752v28.927h3.188v-31.581a13.778 13.778 0 0 0 -11.8-13.753z" fill="#ea6453"/><path d="m52.516 50.241a.507.507 0 0 1 -.176-.032 46.938 46.938 0 0 0 -30.68 0 .5.5 0 0 1 -.352-.937 48.022 48.022 0 0 1 31.383 0 .5.5 0 0 1 -.176.968z" fill="#323c6b"/><path d="m51.272 31.958c-.388-.707-.8-1.4-1.227-2.054a11.59 11.59 0 0 0 -8.4-5.279 7.4 7.4 0 0 1 -9.3 0 11.59 11.59 0 0 0 -8.4 5.279c-.429.651-.839 1.347-1.227 2.054z" fill="#27ccbc"/><path d="m51.272 32.458h-28.544a.5.5 0 0 1 -.438-.741c.434-.788.842-1.471 1.247-2.088a12.1 12.1 0 0 1 8.762-5.5.5.5 0 0 1 .342.089 6.884 6.884 0 0 0 8.721 0 .493.493 0 0 1 .342-.089 12.093 12.093 0 0 1 8.761 5.5c.406.617.814 1.3 1.248 2.088a.5.5 0 0 1 -.438.741zm-27.688-1h26.832c-.269-.463-.528-.885-.788-1.279a11.118 11.118 0 0 0 -7.848-5.036 7.831 7.831 0 0 1 -9.561 0 11.121 11.121 0 0 0 -7.849 5.036c-.258.394-.517.821-.786 1.279z" fill="#323c6b"/><path d="m27.7 31.153a13.509 13.509 0 0 0 -2.146 4.728c-.623 3.615 3.528 5.95 6.572 5.046l-1.962 2.684c-4.268 1.267-10.089-2.007-9.216-7.076a18.944 18.944 0 0 1 3.009-6.63z" fill="#fcd462"/><path d="m28.219 44.383a8.66 8.66 0 0 1 -5.646-2.124 6.17 6.17 0 0 1 -2.121-5.81 18.949 18.949 0 0 1 3.085-6.82.5.5 0 0 1 .575-.2l3.743 1.248a.5.5 0 0 1 .259.75 12.688 12.688 0 0 0 -2.069 4.537 3.569 3.569 0 0 0 1.236 3.357 5.143 5.143 0 0 0 4.7 1.124.5.5 0 0 1 .546.774l-1.962 2.685a.5.5 0 0 1 -.261.185 7.347 7.347 0 0 1 -2.085.294zm-4.057-13.883a17.408 17.408 0 0 0 -2.724 6.118 5.2 5.2 0 0 0 1.8 4.893 7.453 7.453 0 0 0 6.621 1.664l1.141-1.561a6.317 6.317 0 0 1 -4.384-1.544 4.538 4.538 0 0 1 -1.557-4.27 12.734 12.734 0 0 1 1.871-4.372z" fill="#323c6b"/><path d="m50.046 29.9a18.944 18.944 0 0 1 3.009 6.63c.873 5.069-4.947 8.344-9.216 7.076l-1.962-2.684c3.044.9 7.194-1.431 6.572-5.046a13.509 13.509 0 0 0 -2.149-4.723z" fill="#fcd462"/><g fill="#323c6b"><path d="m45.781 44.383a7.347 7.347 0 0 1 -2.081-.293.5.5 0 0 1 -.261-.185l-1.962-2.685a.5.5 0 0 1 .546-.774 5.147 5.147 0 0 0 4.7-1.124 3.569 3.569 0 0 0 1.236-3.357 12.691 12.691 0 0 0 -2.069-4.537.5.5 0 0 1 .259-.75l3.743-1.248a.5.5 0 0 1 .575.2 18.949 18.949 0 0 1 3.085 6.82 6.17 6.17 0 0 1 -2.121 5.81 8.66 8.66 0 0 1 -5.65 2.123zm-1.641-1.207a7.452 7.452 0 0 0 6.621-1.664 5.2 5.2 0 0 0 1.8-4.893 17.408 17.408 0 0 0 -2.723-6.119l-2.768.922a12.773 12.773 0 0 1 1.871 4.378 4.538 4.538 0 0 1 -1.559 4.275 6.32 6.32 0 0 1 -4.382 1.539z"/><path d="m58.986 68.144h-.861a.5.5 0 0 1 0-1h.861a6.766 6.766 0 0 0 5.861-3.415.5.5 0 1 1 .869.5 7.769 7.769 0 0 1 -6.73 3.915z"/><path d="m56 68.144h-.917a.5.5 0 0 1 0-1h.917a.5.5 0 0 1 0 1z"/><path d="m8.589 20.833a.512.512 0 0 1 -.126-.016.5.5 0 0 1 -.357-.61l.045-.179c.035-.142.071-.283.113-.422a.5.5 0 1 1 .957.287c-.037.125-.068.251-.1.378l-.048.188a.5.5 0 0 1 -.484.374z"/><path d="m9.633 17.917a.5.5 0 0 1 -.453-.717 17.361 17.361 0 0 1 6.508-7.354.5.5 0 1 1 .531.848 16.351 16.351 0 0 0 -6.133 6.931.5.5 0 0 1 -.453.292z"/><path d="m62.981 56.668h-51.962a.5.5 0 0 1 -.5-.5v-31.552a14.336 14.336 0 0 1 12.287-14.256 107.218 107.218 0 0 1 28.437-.021 14.31 14.31 0 0 1 12.238 14.248v31.581a.5.5 0 0 1 -.5.5zm-51.463-1h50.963v-31.081a13.306 13.306 0 0 0 -11.371-13.257 106.148 106.148 0 0 0 -28.172.021 13.332 13.332 0 0 0 -11.42 13.264z"/></g><path d="m71 41.454a9.237 9.237 0 0 1 -7.76 9.146v9.79a4.254 4.254 0 0 1 -4.254 4.254h-43.972a4.254 4.254 0 0 1 -4.254-4.254v-9.8a9.229 9.229 0 0 1 -7.76-9.118 9.242 9.242 0 0 1 18.485.006c0 .155 0 .31-.008.466h.008v12.743h31.03l.008-12.752h.008c-.008-.147-.008-.3-.008-.457a9.238 9.238 0 0 1 18.477-.024z" fill="#fe7058"/><path d="m71 41.45a9.238 9.238 0 0 1 -7.76 9.15v9.79a4.246 4.246 0 0 1 -4.25 4.25h-43.98a4.231 4.231 0 0 1 -3.83-2.41 4.579 4.579 0 0 0 .83.08h43.98a4.253 4.253 0 0 0 4.25-4.25v-9.79a9.246 9.246 0 0 0 7.76-9.15 9.109 9.109 0 0 0 -2.25-5.95 9.327 9.327 0 0 1 5.25 8.28z" fill="#ea6453"/><path d="m58.986 65.144h-43.972a4.76 4.76 0 0 1 -4.754-4.754v-9.38a9.677 9.677 0 0 1 -7.76-9.539 9.821 9.821 0 0 1 9.362-9.725 9.741 9.741 0 0 1 10.122 9.731v.4a.5.5 0 0 1 0 .067v12.243h30.032l.008-12.252a.553.553 0 0 1 0-.07c0-.126 0-.256 0-.387a9.735 9.735 0 0 1 10.095-9.732 9.821 9.821 0 0 1 9.381 9.707 9.679 9.679 0 0 1 -7.76 9.566v9.371a4.76 4.76 0 0 1 -4.754 4.754zm-46.745-32.4c-.113 0-.228 0-.342.006a8.813 8.813 0 0 0 -8.4 8.727 8.684 8.684 0 0 0 7.34 8.623.5.5 0 0 1 .421.494v9.8a3.758 3.758 0 0 0 3.754 3.754h43.972a3.758 3.758 0 0 0 3.754-3.758v-9.79a.5.5 0 0 1 .421-.494 8.685 8.685 0 0 0 7.339-8.65 8.812 8.812 0 0 0 -8.417-8.71 8.736 8.736 0 0 0 -9.06 8.733c0 .145 0 .29.008.428a.476.476 0 0 1 -.008.124l-.008 12.659a.5.5 0 0 1 -.5.5h-31.031a.5.5 0 0 1 -.5-.5v-12.663a.451.451 0 0 1 -.007-.109c.007-.147.007-.293.007-.44a8.742 8.742 0 0 0 -8.743-8.738z" fill="#323c6b"/><circle cx="37" cy="15.389" fill="none" r="7.514"/><path d="m33.156 67.484h-.13a3.844 3.844 0 0 1 -3.844-3.844v-19.747a7.742 7.742 0 0 1 7.817 0v19.748a3.844 3.844 0 0 1 -3.843 3.843z" fill="#fcd462"/><path d="m33.156 67.984h-.13a4.349 4.349 0 0 1 -4.344-4.344v-19.747a.5.5 0 0 1 .262-.439 8.248 8.248 0 0 1 8.294 0 .5.5 0 0 1 .262.439v19.748a4.349 4.349 0 0 1 -4.344 4.343zm-3.473-23.784v19.441a3.348 3.348 0 0 0 3.344 3.344h.13a3.348 3.348 0 0 0 3.343-3.344v-19.441a7.133 7.133 0 0 0 -6.817 0z" fill="#323c6b"/><circle cx="37" cy="15.389" fill="#fcd462" r="7.514"/><path d="m44.51 15.39a7.5 7.5 0 0 1 -4.23 6.75 7.513 7.513 0 0 0 -5.58-12.54 7.4 7.4 0 0 0 -3.26.75 7.5 7.5 0 0 1 13.07 5.04z" fill="#f7be56"/><path d="m37 23.4a8.014 8.014 0 1 1 8.014-8.014 8.023 8.023 0 0 1 -8.014 8.014zm0-15.025a7.014 7.014 0 1 0 7.014 7.014 7.022 7.022 0 0 0 -7.014-7.014z" fill="#323c6b"/><path d="m40.974 67.484h-.13a3.844 3.844 0 0 1 -3.844-3.843v-19.748a7.742 7.742 0 0 1 7.817 0v19.748a3.844 3.844 0 0 1 -3.843 3.843z" fill="#fcd462"/><path d="m44.82 43.89v19.75a3.843 3.843 0 0 1 -3.85 3.84h-.13a3.864 3.864 0 0 1 -2.33-.78 3.838 3.838 0 0 0 3.37-3.81v-19.75c-.2-.11-.39-.2-.59-.29a8.073 8.073 0 0 1 3.53 1.04z" fill="#f7be56"/><path d="m40.974 67.984h-.13a4.349 4.349 0 0 1 -4.344-4.343v-19.748a.5.5 0 0 1 .262-.439 8.248 8.248 0 0 1 8.294 0 .5.5 0 0 1 .262.439v19.748a4.349 4.349 0 0 1 -4.344 4.343zm-3.474-23.784v19.441a3.348 3.348 0 0 0 3.344 3.344h.13a3.348 3.348 0 0 0 3.344-3.344v-19.441a7.133 7.133 0 0 0 -6.818 0z" fill="#323c6b"/><path d="m44.931 43.884h-15.862a2 2 0 0 1 -1.992-1.829l-.8-9.406a2 2 0 0 1 1.992-2.169h17.463a2 2 0 0 1 1.992 2.169l-.8 9.406a2 2 0 0 1 -1.993 1.829z" fill="#eeefee"/><path d="m47.72 32.65-.8 9.4a1.987 1.987 0 0 1 -1.99 1.83h-.27l.77-9.1a2 2 0 0 0 -1.99-2.17h-17.16a1.992 1.992 0 0 1 1.99-2.13h17.46a2 2 0 0 1 1.99 2.17z" fill="#e1e6e9"/><path d="m37 38.6a1.971 1.971 0 0 1 -2.187-1.707 1.971 1.971 0 0 1 2.187-1.705 1.971 1.971 0 0 1 2.188 1.707 1.971 1.971 0 0 1 -2.188 1.705zm0-2.414c-.7 0-1.187.373-1.187.707s.487.707 1.187.707 1.188-.373 1.188-.707-.488-.705-1.188-.705z" fill="#323c6b"/><path d="m44.932 44.384h-15.864a2.483 2.483 0 0 1 -2.489-2.284l-.8-9.406a2.5 2.5 0 0 1 2.49-2.711h17.463a2.5 2.5 0 0 1 2.49 2.711l-.8 9.406a2.483 2.483 0 0 1 -2.49 2.284zm-16.664-13.404a1.5 1.5 0 0 0 -1.494 1.626l.8 9.406a1.489 1.489 0 0 0 1.493 1.372h15.865a1.489 1.489 0 0 0 1.493-1.372l.8-9.406a1.5 1.5 0 0 0 -1.494-1.626z" fill="#323c6b"/><path d="m31.124 55.673.056-6.6a.637.637 0 0 1 1.273.01l-.056 6.6a.637.637 0 0 1 -1.273-.01z" fill="#fff"/><path d="m31.1 58.106v-.336a.637.637 0 0 1 1.273.01v.336a.637.637 0 0 1 -1.273-.01z" fill="#fff"/></g></svg>